<svg width="90" height="82" xmlns="http://www.w3.org/2000/svg">
 <!-- Created with Method Draw - http://github.com/duopixel/Method-Draw/ -->

 <g>
  <title>background</title>
  <rect fill="none" id="canvas_background" height="84" width="92" y="-1" x="-1"/>
  <g display="none" overflow="visible" y="0" x="0" height="100%" width="100%" id="canvasGrid">
   <rect fill="url(#gridpattern)" stroke-width="0" y="0" x="0" height="100%" width="100%"/>
  </g>
 </g>
 <g>
  <title>Layer 1</title>
  <path d="m21.970234,20.360119c11,-4 13.943409,-5.147732 19,-7c2.969334,-1.08769 7.078438,-1.789852 10,-3.000002c2.065861,-0.855707 4.000004,-1 5.000004,-1c1,0 0,0 -3,2l-3.000004,2.000002l-2,2" id="svg_1" stroke-width="9.5" stroke="#000" fill="none"/>
  <path d="m23.970234,34.360119c-8.999998,7 -13.458801,9.693436 -13.999998,10.999996c-0.382685,0.923882 0,2 -1,3c-1,1 -0.14727,0.826904 1,0c1.813993,-1.307449 6.078436,-1.789848 9,-3c4.131712,-1.711411 9.868284,-4.288586 13.999998,-5.999996c5.843128,-2.420303 15.132999,-4.569504 19.000004,-6c4.194351,-1.55159 8.878555,-3.493458 12,-4c1.974174,-0.320366 5,1 5,0c0,-1 -2.053505,-0.459507 -4,0c-2.176254,0.513744 -4,2 -7,4c-3,2 -5.938133,4.078583 -11.000004,8c-3.952656,3.062111 -9.10627,4.49873 -15,9.999996c-2.635757,2.460243 -4.718987,6.310211 -8,9c-2.788326,2.285881 -4.16124,4.796265 -7.999998,8c-1.716745,1.432755 -2.692549,2.186005 -4,4c-0.826904,1.14727 -1,3 0,3c1,0 2.051651,0.640732 6,0c3.121443,-0.506538 5.953268,-2.071938 8.999998,-4c4.927216,-3.118095 9.222729,-5.723991 13,-9c4.273495,-3.706383 7.714119,-8.211678 10,-11c4.482983,-5.468353 7.000004,-7.999996 9.000004,-9.999996c1,-1 2,-2 2,-1c0,3 1.095444,4.977337 2,8.999996c1.11866,4.974792 2.371346,8.746742 5,13c2.351143,3.80423 5,7 10,9l3,1l3,1l1,2" id="svg_2" stroke-width="9.5" stroke="#000" fill="none"/>
 </g>
</svg>